<?xml version="1.0" encoding="UTF-8"?>
<!DOCTYPE svg
PUBLIC "-//W3C//DTD SVG 1.1//EN"
       "http://www.w3.org/Graphics/SVG/1.1/DTD/svg11.dtd">
<svg viewBox="206 99 1105 722" width="899px" height="623px" xmlns="http://www.w3.org/2000/svg" version="1.1">
   <line x1="662" y1="543" x2="652" y2="543" style="stroke:#0b0;stroke-width:1;"/>
   <line x1="663" y1="322" x2="673" y2="322" style="stroke:#0b0;stroke-width:1;"/>
   <line x1="652" y1="543" x2="663" y2="322" style="stroke:#0b0;stroke-width:1;"/>
   <line x1="654.5" y1="543" x2="658.03553390593" y2="546.53553390593" style="stroke:#0b0;stroke-width:2;"/>
   <line x1="654.5" y1="543" x2="658.03553390593" y2="539.46446609407" style="stroke:#0b0;stroke-width:2;"/>
   <line x1="668" y1="322" x2="664.46446609407" y2="325.53553390593" style="stroke:#0b0;stroke-width:2;"/>
   <line x1="668" y1="322" x2="664.46446609407" y2="318.46446609407" style="stroke:#0b0;stroke-width:2;"/>
   <line x1="662" y1="563" x2="652" y2="563" style="stroke:#0bf;stroke-width:1;"/>
   <line x1="552" y1="557" x2="542" y2="557" style="stroke:#0bf;stroke-width:1;"/>
   <line x1="652" y1="563" x2="552" y2="557" style="stroke:#0bf;stroke-width:1;"/>
   <line x1="654.5" y1="563" x2="658.03553390593" y2="566.53553390593" style="stroke:#0bf;stroke-width:2;"/>
   <line x1="654.5" y1="563" x2="658.03553390593" y2="559.46446609407" style="stroke:#0bf;stroke-width:2;"/>
   <line x1="547" y1="557" x2="550.53553390593" y2="560.53553390593" style="stroke:#0bf;stroke-width:2;"/>
   <line x1="547" y1="557" x2="550.53553390593" y2="553.46446609407" style="stroke:#0bf;stroke-width:2;"/>
   <line x1="434" y1="657" x2="424" y2="657" style="stroke:#cb0;stroke-width:1;"/>
   <line x1="317" y1="556" x2="307" y2="556" style="stroke:#cb0;stroke-width:1;"/>
   <line x1="424" y1="657" x2="317" y2="556" style="stroke:#cb0;stroke-width:1;"/>
   <line x1="426.5" y1="657" x2="430.03553390593" y2="660.53553390593" style="stroke:#cb0;stroke-width:2;"/>
   <line x1="426.5" y1="657" x2="430.03553390593" y2="653.46446609407" style="stroke:#cb0;stroke-width:2;"/>
   <line x1="312" y1="556" x2="315.53553390593" y2="559.53553390593" style="stroke:#cb0;stroke-width:2;"/>
   <line x1="312" y1="556" x2="315.53553390593" y2="552.46446609407" style="stroke:#cb0;stroke-width:2;"/>
   <line x1="428" y1="290" x2="418" y2="290" style="stroke:#0b0;stroke-width:1;"/>
   <line x1="360" y1="315" x2="350" y2="315" style="stroke:#0b0;stroke-width:1;"/>
   <line x1="418" y1="290" x2="360" y2="315" style="stroke:#0b0;stroke-width:1;"/>
   <line x1="420.5" y1="290" x2="424.03553390593" y2="293.53553390593" style="stroke:#0b0;stroke-width:2;"/>
   <line x1="420.5" y1="290" x2="424.03553390593" y2="286.46446609407" style="stroke:#0b0;stroke-width:2;"/>
   <line x1="355" y1="315" x2="358.53553390593" y2="318.53553390593" style="stroke:#0b0;stroke-width:2;"/>
   <line x1="355" y1="315" x2="358.53553390593" y2="311.46446609407" style="stroke:#0b0;stroke-width:2;"/>
   <line x1="437" y1="443" x2="427" y2="443" style="stroke:#c00;stroke-width:1;"/>
   <line x1="424" y1="557" x2="434" y2="557" style="stroke:#c00;stroke-width:1;"/>
   <line x1="427" y1="443" x2="424" y2="557" style="stroke:#c00;stroke-width:1;"/>
   <line x1="429.5" y1="443" x2="433.03553390593" y2="446.53553390593" style="stroke:#c00;stroke-width:2;"/>
   <line x1="429.5" y1="443" x2="433.03553390593" y2="439.46446609407" style="stroke:#c00;stroke-width:2;"/>
   <line x1="429" y1="557" x2="425.46446609407" y2="560.53553390593" style="stroke:#c00;stroke-width:2;"/>
   <line x1="429" y1="557" x2="425.46446609407" y2="553.46446609407" style="stroke:#c00;stroke-width:2;"/>
   <line x1="437" y1="423" x2="427" y2="423" style="stroke:#333;stroke-width:1;"/>
   <line x1="360" y1="315" x2="350" y2="315" style="stroke:#333;stroke-width:1;"/>
   <line x1="427" y1="423" x2="360" y2="315" style="stroke:#333;stroke-width:1;"/>
   <line x1="429.5" y1="423" x2="433.03553390593" y2="426.53553390593" style="stroke:#333;stroke-width:2;"/>
   <line x1="429.5" y1="423" x2="433.03553390593" y2="419.46446609407" style="stroke:#333;stroke-width:2;"/>
   <line x1="355" y1="315" x2="358.53553390593" y2="318.53553390593" style="stroke:#333;stroke-width:2;"/>
   <line x1="355" y1="315" x2="358.53553390593" y2="311.46446609407" style="stroke:#333;stroke-width:2;"/>
   <rect width="86" height="20" x="662" y="493" style="fill:#007;stroke:black;"/>
   <text width="86" height="20" x="667" y="507" style="fill:#fff;" font-family="Arial" font-size="16px"> actors</text>
   <rect width="86" height="20" x="662" y="513" style="fill:#aea;stroke:black;"/>
   <text width="86" height="20" x="667" y="527" style="fill:black;" font-family="Arial" font-size="16px">id</text>
   <rect width="86" height="20" x="662" y="533" style="fill:none;stroke:black;"/>
   <text width="86" height="20" x="667" y="547" style="fill:black;" font-family="Arial" font-size="16px">cast_id</text>
   <rect width="86" height="20" x="662" y="553" style="fill:none;stroke:black;"/>
   <text width="86" height="20" x="667" y="567" style="fill:black;" font-family="Arial" font-size="16px">film_id</text>
   <rect width="86" height="20" x="662" y="573" style="fill:none;stroke:black;"/>
   <text width="86" height="20" x="667" y="587" style="fill:black;" font-family="Arial" font-size="16px">name</text>
   <rect width="86" height="20" x="662" y="593" style="fill:none;stroke:black;"/>
   <text width="86" height="20" x="667" y="607" style="fill:black;" font-family="Arial" font-size="16px">created_at</text>
   <rect width="86" height="20" x="662" y="613" style="fill:none;stroke:black;"/>
   <text width="86" height="20" x="667" y="627" style="fill:black;" font-family="Arial" font-size="16px">updated_at</text>
   <rect width="86" height="20" x="673" y="292" style="fill:#007;stroke:black;"/>
   <text width="86" height="20" x="678" y="306" style="fill:#fff;" font-family="Arial" font-size="16px"> casts</text>
   <rect width="86" height="20" x="673" y="312" style="fill:#aea;stroke:black;"/>
   <text width="86" height="20" x="678" y="326" style="fill:black;" font-family="Arial" font-size="16px">id</text>
   <rect width="86" height="20" x="673" y="332" style="fill:none;stroke:black;"/>
   <text width="86" height="20" x="678" y="346" style="fill:black;" font-family="Arial" font-size="16px">name</text>
   <rect width="86" height="20" x="673" y="352" style="fill:none;stroke:black;"/>
   <text width="86" height="20" x="678" y="366" style="fill:black;" font-family="Arial" font-size="16px">age</text>
   <rect width="86" height="20" x="673" y="372" style="fill:none;stroke:black;"/>
   <text width="86" height="20" x="678" y="386" style="fill:black;" font-family="Arial" font-size="16px">bio</text>
   <rect width="86" height="20" x="673" y="392" style="fill:none;stroke:black;"/>
   <text width="86" height="20" x="678" y="406" style="fill:black;" font-family="Arial" font-size="16px">created_at</text>
   <rect width="86" height="20" x="673" y="412" style="fill:none;stroke:black;"/>
   <text width="86" height="20" x="678" y="426" style="fill:black;" font-family="Arial" font-size="16px">updated_at</text>
   <rect width="87" height="20" x="918" y="114" style="fill:#007;stroke:black;"/>
   <text width="87" height="20" x="923" y="128" style="fill:#fff;" font-family="Arial" font-size="16px"> failed_jobs</text>
   <rect width="87" height="20" x="918" y="134" style="fill:#aea;stroke:black;"/>
   <text width="87" height="20" x="923" y="148" style="fill:black;" font-family="Arial" font-size="16px">id</text>
   <rect width="87" height="20" x="918" y="154" style="fill:none;stroke:black;"/>
   <text width="87" height="20" x="923" y="168" style="fill:black;" font-family="Arial" font-size="16px">uuid</text>
   <rect width="87" height="20" x="918" y="174" style="fill:none;stroke:black;"/>
   <text width="87" height="20" x="923" y="188" style="fill:black;" font-family="Arial" font-size="16px">connection</text>
   <rect width="87" height="20" x="918" y="194" style="fill:none;stroke:black;"/>
   <text width="87" height="20" x="923" y="208" style="fill:black;" font-family="Arial" font-size="16px">queue</text>
   <rect width="87" height="20" x="918" y="214" style="fill:none;stroke:black;"/>
   <text width="87" height="20" x="923" y="228" style="fill:black;" font-family="Arial" font-size="16px">payload</text>
   <rect width="87" height="20" x="918" y="234" style="fill:none;stroke:black;"/>
   <text width="87" height="20" x="923" y="248" style="fill:black;" font-family="Arial" font-size="16px">exception</text>
   <rect width="87" height="20" x="918" y="254" style="fill:none;stroke:black;"/>
   <text width="87" height="20" x="923" y="268" style="fill:black;" font-family="Arial" font-size="16px">failed_at</text>
   <rect width="108" height="20" x="434" y="527" style="fill:#007;stroke:black;"/>
   <text width="108" height="20" x="439" y="541" style="fill:#fff;" font-family="Arial" font-size="16px"> films</text>
   <rect width="108" height="20" x="434" y="547" style="fill:#aea;stroke:black;"/>
   <text width="108" height="20" x="439" y="561" style="fill:black;" font-family="Arial" font-size="16px">id</text>
   <rect width="108" height="20" x="434" y="567" style="fill:none;stroke:black;"/>
   <text width="108" height="20" x="439" y="581" style="fill:black;" font-family="Arial" font-size="16px">title</text>
   <rect width="108" height="20" x="434" y="587" style="fill:none;stroke:black;"/>
   <text width="108" height="20" x="439" y="601" style="fill:black;" font-family="Arial" font-size="16px">summary</text>
   <rect width="108" height="20" x="434" y="607" style="fill:none;stroke:black;"/>
   <text width="108" height="20" x="439" y="621" style="fill:black;" font-family="Arial" font-size="16px">realease_year</text>
   <rect width="108" height="20" x="434" y="627" style="fill:none;stroke:black;"/>
   <text width="108" height="20" x="439" y="641" style="fill:black;" font-family="Arial" font-size="16px">poster</text>
   <rect width="108" height="20" x="434" y="647" style="fill:none;stroke:black;"/>
   <text width="108" height="20" x="439" y="661" style="fill:black;" font-family="Arial" font-size="16px">genre_id</text>
   <rect width="108" height="20" x="434" y="667" style="fill:none;stroke:black;"/>
   <text width="108" height="20" x="439" y="681" style="fill:black;" font-family="Arial" font-size="16px">created_at</text>
   <rect width="108" height="20" x="434" y="687" style="fill:none;stroke:black;"/>
   <text width="108" height="20" x="439" y="701" style="fill:black;" font-family="Arial" font-size="16px">updated_at</text>
   <rect width="86" height="20" x="221" y="526" style="fill:#007;stroke:black;"/>
   <text width="86" height="20" x="226" y="540" style="fill:#fff;" font-family="Arial" font-size="16px"> genres</text>
   <rect width="86" height="20" x="221" y="546" style="fill:#aea;stroke:black;"/>
   <text width="86" height="20" x="226" y="560" style="fill:black;" font-family="Arial" font-size="16px">id</text>
   <rect width="86" height="20" x="221" y="566" style="fill:none;stroke:black;"/>
   <text width="86" height="20" x="226" y="580" style="fill:black;" font-family="Arial" font-size="16px">name</text>
   <rect width="86" height="20" x="221" y="586" style="fill:none;stroke:black;"/>
   <text width="86" height="20" x="226" y="600" style="fill:black;" font-family="Arial" font-size="16px">created_at</text>
   <rect width="86" height="20" x="221" y="606" style="fill:none;stroke:black;"/>
   <text width="86" height="20" x="226" y="620" style="fill:black;" font-family="Arial" font-size="16px">updated_at</text>
   <rect width="83" height="20" x="702" y="144" style="fill:#007;stroke:black;"/>
   <text width="83" height="20" x="707" y="158" style="fill:#fff;" font-family="Arial" font-size="16px"> migrations</text>
   <rect width="83" height="20" x="702" y="164" style="fill:#aea;stroke:black;"/>
   <text width="83" height="20" x="707" y="178" style="fill:black;" font-family="Arial" font-size="16px">id</text>
   <rect width="83" height="20" x="702" y="184" style="fill:none;stroke:black;"/>
   <text width="83" height="20" x="707" y="198" style="fill:black;" font-family="Arial" font-size="16px">migration</text>
   <rect width="83" height="20" x="702" y="204" style="fill:none;stroke:black;"/>
   <text width="83" height="20" x="707" y="218" style="fill:black;" font-family="Arial" font-size="16px">batch</text>
   <rect width="172" height="20" x="907" y="534" style="fill:#007;stroke:black;"/>
   <text width="172" height="20" x="912" y="548" style="fill:#fff;" font-family="Arial" font-size="16px"> password_reset_tokens</text>
   <rect width="172" height="20" x="907" y="554" style="fill:none;stroke:black;"/>
   <text width="172" height="20" x="912" y="568" style="fill:black;" font-family="Arial" font-size="16px">email</text>
   <rect width="172" height="20" x="907" y="574" style="fill:none;stroke:black;"/>
   <text width="172" height="20" x="912" y="588" style="fill:black;" font-family="Arial" font-size="16px">token</text>
   <rect width="172" height="20" x="907" y="594" style="fill:none;stroke:black;"/>
   <text width="172" height="20" x="912" y="608" style="fill:black;" font-family="Arial" font-size="16px">created_at</text>
   <rect width="178" height="20" x="912" y="277" style="fill:#007;stroke:black;"/>
   <text width="178" height="20" x="917" y="291" style="fill:#fff;" font-family="Arial" font-size="16px"> personal_access_tokens</text>
   <rect width="178" height="20" x="912" y="297" style="fill:#aea;stroke:black;"/>
   <text width="178" height="20" x="917" y="311" style="fill:black;" font-family="Arial" font-size="16px">id</text>
   <rect width="178" height="20" x="912" y="317" style="fill:none;stroke:black;"/>
   <text width="178" height="20" x="917" y="331" style="fill:black;" font-family="Arial" font-size="16px">tokenable_type</text>
   <rect width="178" height="20" x="912" y="337" style="fill:none;stroke:black;"/>
   <text width="178" height="20" x="917" y="351" style="fill:black;" font-family="Arial" font-size="16px">tokenable_id</text>
   <rect width="178" height="20" x="912" y="357" style="fill:none;stroke:black;"/>
   <text width="178" height="20" x="917" y="371" style="fill:black;" font-family="Arial" font-size="16px">name</text>
   <rect width="178" height="20" x="912" y="377" style="fill:none;stroke:black;"/>
   <text width="178" height="20" x="917" y="391" style="fill:black;" font-family="Arial" font-size="16px">token</text>
   <rect width="178" height="20" x="912" y="397" style="fill:none;stroke:black;"/>
   <text width="178" height="20" x="917" y="411" style="fill:black;" font-family="Arial" font-size="16px">abilities</text>
   <rect width="178" height="20" x="912" y="417" style="fill:none;stroke:black;"/>
   <text width="178" height="20" x="917" y="431" style="fill:black;" font-family="Arial" font-size="16px">last_used_at</text>
   <rect width="178" height="20" x="912" y="437" style="fill:none;stroke:black;"/>
   <text width="178" height="20" x="917" y="451" style="fill:black;" font-family="Arial" font-size="16px">expires_at</text>
   <rect width="178" height="20" x="912" y="457" style="fill:none;stroke:black;"/>
   <text width="178" height="20" x="917" y="471" style="fill:black;" font-family="Arial" font-size="16px">created_at</text>
   <rect width="178" height="20" x="912" y="477" style="fill:none;stroke:black;"/>
   <text width="178" height="20" x="917" y="491" style="fill:black;" font-family="Arial" font-size="16px">updated_at</text>
   <rect width="86" height="20" x="428" y="200" style="fill:#007;stroke:black;"/>
   <text width="86" height="20" x="433" y="214" style="fill:#fff;" font-family="Arial" font-size="16px"> profiles</text>
   <rect width="86" height="20" x="428" y="220" style="fill:#aea;stroke:black;"/>
   <text width="86" height="20" x="433" y="234" style="fill:black;" font-family="Arial" font-size="16px">id</text>
   <rect width="86" height="20" x="428" y="240" style="fill:none;stroke:black;"/>
   <text width="86" height="20" x="433" y="254" style="fill:black;" font-family="Arial" font-size="16px">age</text>
   <rect width="86" height="20" x="428" y="260" style="fill:none;stroke:black;"/>
   <text width="86" height="20" x="433" y="274" style="fill:black;" font-family="Arial" font-size="16px">bio</text>
   <rect width="86" height="20" x="428" y="280" style="fill:none;stroke:black;"/>
   <text width="86" height="20" x="433" y="294" style="fill:black;" font-family="Arial" font-size="16px">user_id</text>
   <rect width="86" height="20" x="428" y="300" style="fill:none;stroke:black;"/>
   <text width="86" height="20" x="433" y="314" style="fill:black;" font-family="Arial" font-size="16px">created_at</text>
   <rect width="86" height="20" x="428" y="320" style="fill:none;stroke:black;"/>
   <text width="86" height="20" x="433" y="334" style="fill:black;" font-family="Arial" font-size="16px">updated_at</text>
   <rect width="86" height="20" x="437" y="373" style="fill:#007;stroke:black;"/>
   <text width="86" height="20" x="442" y="387" style="fill:#fff;" font-family="Arial" font-size="16px"> reviews</text>
   <rect width="86" height="20" x="437" y="393" style="fill:#aea;stroke:black;"/>
   <text width="86" height="20" x="442" y="407" style="fill:black;" font-family="Arial" font-size="16px">id</text>
   <rect width="86" height="20" x="437" y="413" style="fill:none;stroke:black;"/>
   <text width="86" height="20" x="442" y="427" style="fill:black;" font-family="Arial" font-size="16px">user_id</text>
   <rect width="86" height="20" x="437" y="433" style="fill:none;stroke:black;"/>
   <text width="86" height="20" x="442" y="447" style="fill:black;" font-family="Arial" font-size="16px">film_id</text>
   <rect width="86" height="20" x="437" y="453" style="fill:none;stroke:black;"/>
   <text width="86" height="20" x="442" y="467" style="fill:black;" font-family="Arial" font-size="16px">content</text>
   <rect width="86" height="20" x="437" y="473" style="fill:none;stroke:black;"/>
   <text width="86" height="20" x="442" y="487" style="fill:black;" font-family="Arial" font-size="16px">created_at</text>
   <rect width="86" height="20" x="437" y="493" style="fill:none;stroke:black;"/>
   <text width="86" height="20" x="442" y="507" style="fill:black;" font-family="Arial" font-size="16px">updated_at</text>
   <rect width="127" height="20" x="223" y="285" style="fill:#007;stroke:black;"/>
   <text width="127" height="20" x="228" y="299" style="fill:#fff;" font-family="Arial" font-size="16px"> users</text>
   <rect width="127" height="20" x="223" y="305" style="fill:#aea;stroke:black;"/>
   <text width="127" height="20" x="228" y="319" style="fill:black;" font-family="Arial" font-size="16px">id</text>
   <rect width="127" height="20" x="223" y="325" style="fill:none;stroke:black;"/>
   <text width="127" height="20" x="228" y="339" style="fill:black;" font-family="Arial" font-size="16px">name</text>
   <rect width="127" height="20" x="223" y="345" style="fill:none;stroke:black;"/>
   <text width="127" height="20" x="228" y="359" style="fill:black;" font-family="Arial" font-size="16px">email</text>
   <rect width="127" height="20" x="223" y="365" style="fill:none;stroke:black;"/>
   <text width="127" height="20" x="228" y="379" style="fill:black;" font-family="Arial" font-size="16px">email_verified_at</text>
   <rect width="127" height="20" x="223" y="385" style="fill:none;stroke:black;"/>
   <text width="127" height="20" x="228" y="399" style="fill:black;" font-family="Arial" font-size="16px">password</text>
   <rect width="127" height="20" x="223" y="405" style="fill:none;stroke:black;"/>
   <text width="127" height="20" x="228" y="419" style="fill:black;" font-family="Arial" font-size="16px">remember_token</text>
   <rect width="127" height="20" x="223" y="425" style="fill:none;stroke:black;"/>
   <text width="127" height="20" x="228" y="439" style="fill:black;" font-family="Arial" font-size="16px">created_at</text>
   <rect width="127" height="20" x="223" y="445" style="fill:none;stroke:black;"/>
   <text width="127" height="20" x="228" y="459" style="fill:black;" font-family="Arial" font-size="16px">updated_at</text>
</svg>
